<?xml version="1.0" encoding="utf-8"?>
<!-- Generator: Adobe Illustrator 23.0.3, SVG Export Plug-In . SVG Version: 6.00 Build 0)  -->
<svg version="1.1" xmlns="http://www.w3.org/2000/svg" xmlns:xlink="http://www.w3.org/1999/xlink" x="0px" y="0px" width="389.7px"
	 height="57.5px" viewBox="0 0 389.7 57.5" style="enable-background:new 0 0 389.7 57.5;" xml:space="preserve">
<style type="text/css">
	.st0{fill:#023D4D;}
	.st1{opacity:0.1;fill:#07DEE8;}
	.st2{fill:#FFFFFF;}
	.st3{fill:#07DEE8;}
	.st4{fill:#42FFA1;}
	.st5{fill:#E4D0FB;}
	.st6{fill:#14FFE0;}
	.st7{fill:#FF6445;}
	.st8{fill:#C12D2D;}
	.st9{fill:#EBEBEB;}
	.st10{fill:#EFDB29;}
	.st11{fill:none;stroke:#07DEE8;stroke-width:0.7615;stroke-miterlimit:10;}
	.st12{filter:url(#Adobe_OpacityMaskFilter);}
	.st13{opacity:0.35;mask:url(#SVGID_3_);}
	.st14{clip-path:url(#SVGID_7_);}
	.st15{filter:url(#Adobe_OpacityMaskFilter_1_);}
	.st16{opacity:0.35;mask:url(#SVGID_8_);}
	.st17{filter:url(#Adobe_OpacityMaskFilter_2_);}
	.st18{opacity:0.35;mask:url(#SVGID_11_);}
	.st19{opacity:0.95;}
	.st20{fill:none;stroke:#07DEE8;stroke-width:0.587;stroke-miterlimit:10;}
	.st21{fill:none;stroke:#07DEE8;stroke-width:0.7835;stroke-miterlimit:10;}
	.st22{filter:url(#Adobe_OpacityMaskFilter_3_);}
	.st23{opacity:0.35;mask:url(#SVGID_14_);}
	.st24{opacity:0.35;fill:#BF7DFF;}
	.st25{opacity:0.9;}
	.st26{clip-path:url(#SVGID_16_);}
	.st27{fill:none;stroke:#07DEE8;stroke-width:0.5899;stroke-miterlimit:10;}
	.st28{fill:none;stroke:#023D4D;stroke-width:1.1729;stroke-miterlimit:10;}
	.st29{display:none;fill:#023D4D;}
	.st30{fill:#0AE56D;}
	.st31{fill:#F2F2F2;}
	.st32{fill:none;stroke:#FF6445;stroke-width:0.4132;stroke-miterlimit:10;}
	.st33{fill:none;stroke:#FF6445;stroke-width:3;stroke-miterlimit:10;}
	.st34{fill:none;stroke:#023D4D;stroke-miterlimit:10;}
	.st35{fill:#FFFFFF;stroke:#CCCCCC;stroke-width:0.25;stroke-miterlimit:10;}
	.st36{opacity:0.97;}
	.st37{fill:none;stroke:#FF6445;stroke-width:1.3377;stroke-miterlimit:10;}
	.st38{fill:none;stroke:#E6E6E6;stroke-width:0.4459;stroke-miterlimit:10;}
	.st39{fill:none;stroke:#FF6445;stroke-miterlimit:10;}
</style>
<g id="background">
</g>
<g id="Layer_1">
</g>
<g id="content">
</g>
<g id="header">
	<g id="XMLID_18_">
		<g>
			<g>
				<path class="st0" d="M103.6,9.5h-5.5v14.8h-3.7V9.5h-5.4v-3h14.5V9.5z"/>
				<path class="st0" d="M102.4,17.6c0-1.3,0.3-2.5,0.8-3.5c0.5-1,1.2-1.8,2.2-2.4c0.9-0.6,2.1-0.8,3.3-0.8c1.8,0,3.2,0.5,4.4,1.6
					s1.8,2.6,1.9,4.5l0,0.9c0,2-0.6,3.7-1.7,4.9c-1.1,1.2-2.7,1.8-4.6,1.8s-3.4-0.6-4.6-1.8s-1.7-2.9-1.7-5V17.6z M105.9,17.8
					c0,1.3,0.2,2.2,0.7,2.9c0.5,0.7,1.1,1,2,1c0.9,0,1.5-0.3,2-1c0.5-0.7,0.7-1.7,0.7-3.2c0-1.2-0.2-2.2-0.7-2.9c-0.5-0.7-1.2-1-2-1
					c-0.9,0-1.5,0.3-2,1C106.1,15.4,105.9,16.4,105.9,17.8z"/>
				<path class="st0" d="M129,17.8c0,2.1-0.5,3.8-1.4,5c-0.9,1.2-2.2,1.8-3.8,1.8c-1.4,0-2.6-0.6-3.4-1.7l-0.2,1.4h-3.2V5.5h3.5v6.7
					c0.8-1,1.9-1.4,3.2-1.4c1.6,0,2.9,0.6,3.8,1.8s1.4,2.9,1.4,5V17.8z M125.5,17.5c0-1.3-0.2-2.3-0.6-2.9c-0.4-0.6-1.1-0.9-1.9-0.9
					c-1.1,0-1.9,0.5-2.3,1.4v5.2c0.4,0.9,1.2,1.4,2.3,1.4c1.1,0,1.9-0.6,2.2-1.7C125.4,19.5,125.5,18.6,125.5,17.5z"/>
				<path class="st0" d="M138.8,24.3c-0.2-0.3-0.3-0.7-0.4-1.2c-0.9,1-2,1.4-3.3,1.4c-1.3,0-2.4-0.4-3.2-1.1
					c-0.9-0.7-1.3-1.7-1.3-2.8c0-1.4,0.5-2.5,1.6-3.2s2.5-1.1,4.5-1.1h1.6v-0.8c0-0.6-0.2-1.1-0.5-1.5c-0.3-0.4-0.8-0.6-1.5-0.6
					c-0.6,0-1.1,0.1-1.4,0.4c-0.3,0.3-0.5,0.7-0.5,1.2h-3.5c0-0.8,0.2-1.5,0.7-2.1c0.5-0.7,1.1-1.2,2-1.5c0.9-0.4,1.8-0.6,2.9-0.6
					c1.6,0,2.9,0.4,3.9,1.2s1.4,2,1.4,3.5v5.7c0,1.3,0.2,2.2,0.5,2.8v0.2H138.8z M135.9,21.8c0.5,0,1-0.1,1.4-0.3
					c0.4-0.2,0.8-0.5,1-0.9v-2.3H137c-1.8,0-2.7,0.6-2.8,1.8l0,0.2c0,0.4,0.2,0.8,0.5,1.1C134.9,21.7,135.4,21.8,135.9,21.8z"/>
				<path class="st0" d="M150.1,21.7c0.7,0,1.2-0.2,1.6-0.5c0.4-0.4,0.6-0.8,0.6-1.4h3.3c0,0.9-0.3,1.7-0.7,2.5
					c-0.5,0.7-1.1,1.3-2,1.7c-0.8,0.4-1.8,0.6-2.8,0.6c-1.9,0-3.4-0.6-4.5-1.8c-1.1-1.2-1.6-2.9-1.6-5v-0.2c0-2,0.5-3.7,1.6-4.9
					c1.1-1.2,2.6-1.8,4.5-1.8c1.7,0,3,0.5,4,1.4c1,0.9,1.5,2.2,1.5,3.8h-3.3c0-0.7-0.2-1.2-0.6-1.7c-0.4-0.4-0.9-0.6-1.6-0.6
					c-0.8,0-1.4,0.3-1.9,0.9s-0.6,1.6-0.6,2.9v0.4c0,1.4,0.2,2.3,0.6,2.9C148.6,21.4,149.2,21.7,150.1,21.7z"/>
				<path class="st0" d="M163.2,21.7c0.7,0,1.2-0.2,1.6-0.5c0.4-0.4,0.6-0.8,0.6-1.4h3.3c0,0.9-0.3,1.7-0.7,2.5
					c-0.5,0.7-1.1,1.3-2,1.7c-0.8,0.4-1.8,0.6-2.8,0.6c-1.9,0-3.4-0.6-4.5-1.8c-1.1-1.2-1.6-2.9-1.6-5v-0.2c0-2,0.5-3.7,1.6-4.9
					c1.1-1.2,2.6-1.8,4.5-1.8c1.7,0,3,0.5,4,1.4c1,0.9,1.5,2.2,1.5,3.8h-3.3c0-0.7-0.2-1.2-0.6-1.7c-0.4-0.4-0.9-0.6-1.6-0.6
					c-0.8,0-1.4,0.3-1.9,0.9c-0.4,0.6-0.6,1.6-0.6,2.9v0.4c0,1.4,0.2,2.3,0.6,2.9C161.7,21.4,162.3,21.7,163.2,21.7z"/>
				<path class="st0" d="M170.2,17.6c0-1.3,0.3-2.5,0.8-3.5c0.5-1,1.2-1.8,2.2-2.4c0.9-0.6,2.1-0.8,3.3-0.8c1.8,0,3.2,0.5,4.4,1.6
					s1.8,2.6,1.9,4.5l0,0.9c0,2-0.6,3.7-1.7,4.9c-1.1,1.2-2.7,1.8-4.6,1.8s-3.4-0.6-4.6-1.8s-1.7-2.9-1.7-5V17.6z M173.7,17.8
					c0,1.3,0.2,2.2,0.7,2.9c0.5,0.7,1.1,1,2,1c0.9,0,1.5-0.3,2-1c0.5-0.7,0.7-1.7,0.7-3.2c0-1.2-0.2-2.2-0.7-2.9c-0.5-0.7-1.2-1-2-1
					c-0.9,0-1.5,0.3-2,1C173.9,15.4,173.7,16.4,173.7,17.8z"/>
				<path class="st0" d="M197.9,17.8H195v6.5h-3.7V6.5h6.6c2.1,0,3.7,0.5,4.9,1.4c1.1,0.9,1.7,2.3,1.7,4c0,1.2-0.3,2.2-0.8,3
					s-1.3,1.5-2.4,1.9l3.9,7.3v0.2h-3.9L197.9,17.8z M195,14.8h3c0.9,0,1.6-0.2,2.1-0.7c0.5-0.5,0.8-1.1,0.8-1.9
					c0-0.8-0.2-1.5-0.7-2c-0.5-0.5-1.2-0.7-2.2-0.7H195V14.8z"/>
				<path class="st0" d="M213.2,24.5c-1.9,0-3.5-0.6-4.7-1.8c-1.2-1.2-1.8-2.8-1.8-4.8v-0.3c0-1.3,0.3-2.5,0.8-3.6
					c0.5-1,1.2-1.9,2.2-2.4s2-0.9,3.2-0.9c1.8,0,3.2,0.6,4.3,1.7s1.6,2.8,1.6,4.9v1.4h-8.4c0.1,0.9,0.5,1.6,1,2.1
					c0.6,0.5,1.3,0.8,2.2,0.8c1.4,0,2.4-0.5,3.2-1.5l1.7,1.9c-0.5,0.8-1.2,1.3-2.2,1.8C215.3,24.3,214.3,24.5,213.2,24.5z
					 M212.8,13.7c-0.7,0-1.3,0.2-1.7,0.7c-0.4,0.5-0.7,1.2-0.8,2h4.9v-0.3c0-0.8-0.2-1.4-0.6-1.8C214.1,13.9,213.5,13.7,212.8,13.7z
					"/>
				<path class="st0" d="M220.1,17.6c0-2,0.5-3.7,1.4-4.9c1-1.2,2.3-1.9,3.9-1.9c1.5,0,2.6,0.5,3.4,1.5l0.1-1.2h3.2v12.8
					c0,1.2-0.3,2.2-0.8,3c-0.5,0.9-1.3,1.5-2.2,2c-1,0.4-2.1,0.7-3.4,0.7c-1,0-1.9-0.2-2.8-0.6s-1.6-0.9-2.1-1.5l1.6-2.2
					c0.9,1,1.9,1.5,3.2,1.5c0.9,0,1.7-0.3,2.2-0.8c0.5-0.5,0.8-1.2,0.8-2.1v-0.7c-0.8,0.9-1.9,1.4-3.2,1.4c-1.6,0-2.9-0.6-3.9-1.9
					c-1-1.2-1.5-2.9-1.5-4.9V17.6z M223.6,17.8c0,1.2,0.2,2.1,0.7,2.8c0.5,0.7,1.1,1,2,1c1.1,0,1.8-0.4,2.3-1.2v-5.6
					c-0.5-0.8-1.2-1.2-2.3-1.2c-0.8,0-1.5,0.3-2,1C223.9,15.4,223.6,16.5,223.6,17.8z"/>
				<path class="st0" d="M242.8,22.9c-0.9,1.1-2.1,1.6-3.6,1.6c-1.4,0-2.5-0.4-3.2-1.2s-1.1-2-1.1-3.6v-8.7h3.5v8.6
					c0,1.4,0.6,2.1,1.9,2.1c1.2,0,2-0.4,2.5-1.2v-9.4h3.5v13.2h-3.3L242.8,22.9z"/>
				<path class="st0" d="M252.6,24.3h-3.5V5.5h3.5V24.3z"/>
				<path class="st0" d="M263.2,24.3c-0.2-0.3-0.3-0.7-0.4-1.2c-0.9,1-2,1.4-3.3,1.4c-1.3,0-2.4-0.4-3.2-1.1
					c-0.9-0.7-1.3-1.7-1.3-2.8c0-1.4,0.5-2.5,1.6-3.2s2.5-1.1,4.5-1.1h1.6v-0.8c0-0.6-0.2-1.1-0.5-1.5c-0.3-0.4-0.8-0.6-1.5-0.6
					c-0.6,0-1.1,0.1-1.4,0.4c-0.3,0.3-0.5,0.7-0.5,1.2h-3.5c0-0.8,0.2-1.5,0.7-2.1c0.5-0.7,1.1-1.2,2-1.5c0.9-0.4,1.8-0.6,2.9-0.6
					c1.6,0,2.9,0.4,3.9,1.2s1.4,2,1.4,3.5v5.7c0,1.3,0.2,2.2,0.5,2.8v0.2H263.2z M260.3,21.8c0.5,0,1-0.1,1.4-0.3
					c0.4-0.2,0.8-0.5,1-0.9v-2.3h-1.3c-1.8,0-2.7,0.6-2.8,1.8l0,0.2c0,0.4,0.2,0.8,0.5,1.1C259.3,21.7,259.8,21.8,260.3,21.8z"/>
				<path class="st0" d="M273.2,7.8v3.3h2.3v2.6h-2.3v6.6c0,0.5,0.1,0.8,0.3,1.1c0.2,0.2,0.5,0.3,1.1,0.3c0.4,0,0.7,0,1-0.1v2.7
					c-0.7,0.2-1.4,0.3-2.1,0.3c-2.5,0-3.7-1.3-3.8-3.8v-7.1h-1.9v-2.6h1.9V7.8H273.2z"/>
				<path class="st0" d="M276.5,17.6c0-1.3,0.3-2.5,0.8-3.5c0.5-1,1.2-1.8,2.2-2.4s2.1-0.8,3.3-0.8c1.8,0,3.2,0.5,4.4,1.6
					s1.8,2.6,1.9,4.5l0,0.9c0,2-0.6,3.7-1.7,4.9c-1.1,1.2-2.7,1.8-4.6,1.8s-3.4-0.6-4.6-1.8c-1.1-1.2-1.7-2.9-1.7-5V17.6z
					 M280.1,17.8c0,1.3,0.2,2.2,0.7,2.9c0.5,0.7,1.1,1,2,1c0.9,0,1.5-0.3,2-1c0.5-0.7,0.7-1.7,0.7-3.2c0-1.2-0.2-2.2-0.7-2.9
					c-0.5-0.7-1.2-1-2-1c-0.9,0-1.5,0.3-2,1C280.3,15.4,280.1,16.4,280.1,17.8z"/>
				<path class="st0" d="M298.7,14.4c-0.5-0.1-0.9-0.1-1.3-0.1c-1.3,0-2.2,0.5-2.6,1.4v8.7h-3.5V11.1h3.3l0.1,1.6
					c0.7-1.2,1.7-1.8,2.9-1.8c0.4,0,0.8,0.1,1.1,0.2L298.7,14.4z"/>
				<path class="st0" d="M305.5,19.3l2.4-8.2h3.8l-5.3,15.3l-0.3,0.7c-0.8,1.7-2.1,2.6-3.9,2.6c-0.5,0-1-0.1-1.6-0.2v-2.7l0.5,0
					c0.7,0,1.2-0.1,1.5-0.3c0.3-0.2,0.6-0.5,0.8-1l0.4-1.1l-4.6-13.3h3.8L305.5,19.3z"/>
				<path class="st0" d="M99.4,47.6c0-0.7-0.2-1.2-0.7-1.6c-0.5-0.4-1.4-0.8-2.6-1.2c-1.3-0.4-2.3-0.8-3-1.2c-2-1.1-3-2.6-3-4.4
					c0-1,0.3-1.8,0.8-2.6c0.5-0.8,1.3-1.3,2.3-1.8s2.2-0.6,3.4-0.6c1.3,0,2.4,0.2,3.4,0.7c1,0.5,1.8,1.1,2.3,2
					c0.5,0.8,0.8,1.8,0.8,2.9h-3.7c0-0.8-0.3-1.4-0.8-1.9c-0.5-0.5-1.2-0.7-2.2-0.7c-0.9,0-1.6,0.2-2.1,0.6
					c-0.5,0.4-0.7,0.9-0.7,1.5c0,0.6,0.3,1.1,0.9,1.5c0.6,0.4,1.4,0.8,2.6,1.1c2.1,0.6,3.6,1.4,4.6,2.3c1,0.9,1.4,2.1,1.4,3.5
					c0,1.5-0.6,2.7-1.7,3.6c-1.2,0.9-2.7,1.3-4.7,1.3c-1.4,0-2.6-0.3-3.7-0.8c-1.1-0.5-2-1.2-2.6-2.1s-0.9-1.9-0.9-3h3.7
					c0,2,1.2,2.9,3.5,2.9c0.9,0,1.6-0.2,2-0.5C99.2,48.7,99.4,48.2,99.4,47.6z"/>
				<path class="st0" d="M110.9,49.7c0.7,0,1.2-0.2,1.6-0.5c0.4-0.4,0.6-0.8,0.6-1.4h3.3c0,0.9-0.3,1.7-0.7,2.5
					c-0.5,0.7-1.1,1.3-2,1.7c-0.8,0.4-1.8,0.6-2.8,0.6c-1.9,0-3.4-0.6-4.5-1.8c-1.1-1.2-1.6-2.9-1.6-5v-0.2c0-2,0.5-3.7,1.6-4.9
					c1.1-1.2,2.6-1.8,4.5-1.8c1.7,0,3,0.5,4,1.4c1,0.9,1.5,2.2,1.5,3.8h-3.3c0-0.7-0.2-1.2-0.6-1.7c-0.4-0.4-0.9-0.6-1.6-0.6
					c-0.8,0-1.4,0.3-1.9,0.9c-0.4,0.6-0.6,1.6-0.6,2.9v0.4c0,1.4,0.2,2.3,0.6,2.9C109.4,49.4,110,49.7,110.9,49.7z"/>
				<path class="st0" d="M118.4,35.6c0-0.5,0.2-1,0.5-1.3c0.4-0.3,0.8-0.5,1.4-0.5c0.6,0,1.1,0.2,1.4,0.5c0.4,0.3,0.5,0.8,0.5,1.3
					c0,0.5-0.2,1-0.5,1.3c-0.4,0.3-0.8,0.5-1.4,0.5s-1.1-0.2-1.4-0.5C118.6,36.6,118.4,36.1,118.4,35.6z M122.1,52.3h-3.5V39h3.5
					V52.3z"/>
				<path class="st0" d="M131.1,52.5c-1.9,0-3.5-0.6-4.7-1.8c-1.2-1.2-1.8-2.8-1.8-4.8v-0.3c0-1.3,0.3-2.5,0.8-3.6
					c0.5-1,1.2-1.9,2.2-2.4s2-0.9,3.2-0.9c1.8,0,3.2,0.6,4.3,1.7s1.6,2.8,1.6,4.9v1.4h-8.4c0.1,0.9,0.5,1.6,1,2.1
					c0.6,0.5,1.3,0.8,2.2,0.8c1.4,0,2.4-0.5,3.2-1.5l1.7,1.9c-0.5,0.8-1.2,1.3-2.2,1.8C133.2,52.3,132.2,52.5,131.1,52.5z
					 M130.7,41.6c-0.7,0-1.3,0.2-1.7,0.7c-0.4,0.5-0.7,1.2-0.8,2h4.9v-0.3c0-0.8-0.2-1.4-0.6-1.8C132.1,41.8,131.5,41.6,130.7,41.6z
					"/>
				<path class="st0" d="M141.8,39l0.1,1.5c0.9-1.2,2.2-1.8,3.8-1.8c1.4,0,2.4,0.4,3.1,1.2c0.7,0.8,1,2.1,1.1,3.7v8.5h-3.5v-8.5
					c0-0.8-0.2-1.3-0.5-1.6s-0.9-0.5-1.6-0.5c-1,0-1.7,0.4-2.2,1.3v9.3h-3.5V39H141.8z"/>
				<path class="st0" d="M158.1,49.7c0.7,0,1.2-0.2,1.6-0.5c0.4-0.4,0.6-0.8,0.6-1.4h3.3c0,0.9-0.3,1.7-0.7,2.5
					c-0.5,0.7-1.1,1.3-2,1.7c-0.8,0.4-1.8,0.6-2.8,0.6c-1.9,0-3.4-0.6-4.5-1.8c-1.1-1.2-1.6-2.9-1.6-5v-0.2c0-2,0.5-3.7,1.6-4.9
					c1.1-1.2,2.6-1.8,4.5-1.8c1.7,0,3,0.5,4,1.4c1,0.9,1.5,2.2,1.5,3.8h-3.3c0-0.7-0.2-1.2-0.6-1.7c-0.4-0.4-0.9-0.6-1.6-0.6
					c-0.8,0-1.4,0.3-1.9,0.9s-0.6,1.6-0.6,2.9v0.4c0,1.4,0.2,2.3,0.6,2.9C156.6,49.4,157.3,49.7,158.1,49.7z"/>
				<path class="st0" d="M171.8,52.5c-1.9,0-3.5-0.6-4.7-1.8c-1.2-1.2-1.8-2.8-1.8-4.8v-0.3c0-1.3,0.3-2.5,0.8-3.6
					c0.5-1,1.2-1.9,2.2-2.4s2-0.9,3.2-0.9c1.8,0,3.2,0.6,4.3,1.7s1.6,2.8,1.6,4.9v1.4h-8.4c0.1,0.9,0.5,1.6,1,2.1
					c0.6,0.5,1.3,0.8,2.2,0.8c1.4,0,2.4-0.5,3.2-1.5l1.7,1.9c-0.5,0.8-1.2,1.3-2.2,1.8C173.9,52.3,172.9,52.5,171.8,52.5z
					 M171.4,41.6c-0.7,0-1.3,0.2-1.7,0.7c-0.4,0.5-0.7,1.2-0.8,2h4.9v-0.3c0-0.8-0.2-1.4-0.6-1.8C172.7,41.8,172.1,41.6,171.4,41.6z
					"/>
				<path class="st0" d="M191.2,45.1l-1.9,2.1v5.1h-3.7V34.5h3.7v8.1l1.6-2.2l4.5-5.9h4.5l-6.3,7.9l6.5,9.9h-4.4L191.2,45.1z"/>
				<path class="st0" d="M204.6,39l0.1,1.5c0.9-1.2,2.2-1.8,3.8-1.8c1.4,0,2.4,0.4,3.1,1.2c0.7,0.8,1,2.1,1.1,3.7v8.5h-3.5v-8.5
					c0-0.8-0.2-1.3-0.5-1.6s-0.9-0.5-1.6-0.5c-1,0-1.7,0.4-2.2,1.3v9.3h-3.5V39H204.6z"/>
				<path class="st0" d="M214.8,45.5c0-1.3,0.3-2.5,0.8-3.5c0.5-1,1.2-1.8,2.2-2.4c0.9-0.6,2.1-0.8,3.3-0.8c1.8,0,3.2,0.5,4.4,1.6
					s1.8,2.6,1.9,4.5l0,0.9c0,2-0.6,3.7-1.7,4.9c-1.1,1.2-2.7,1.8-4.6,1.8s-3.4-0.6-4.6-1.8s-1.7-2.9-1.7-5V45.5z M218.3,45.8
					c0,1.3,0.2,2.2,0.7,2.9c0.5,0.7,1.1,1,2,1c0.9,0,1.5-0.3,2-1c0.5-0.7,0.7-1.7,0.7-3.2c0-1.2-0.2-2.2-0.7-2.9c-0.5-0.7-1.2-1-2-1
					c-0.9,0-1.5,0.3-2,1C218.6,43.3,218.3,44.4,218.3,45.8z"/>
				<path class="st0" d="M241,47.4l1.7-8.4h3.4l-3.4,13.2h-3l-2.5-8.3l-2.5,8.3h-2.9L228.5,39h3.4l1.7,8.4l2.4-8.4h2.6L241,47.4z"/>
				<path class="st0" d="M251.6,52.3h-3.5V33.5h3.5V52.3z"/>
				<path class="st0" d="M260.6,52.5c-1.9,0-3.5-0.6-4.7-1.8s-1.8-2.8-1.8-4.8v-0.3c0-1.3,0.3-2.5,0.8-3.6s1.2-1.9,2.2-2.4
					s2-0.9,3.2-0.9c1.8,0,3.2,0.6,4.3,1.7s1.6,2.8,1.6,4.9v1.4h-8.4c0.1,0.9,0.5,1.6,1,2.1c0.6,0.5,1.3,0.8,2.2,0.8
					c1.4,0,2.4-0.5,3.2-1.5l1.7,1.9c-0.5,0.8-1.2,1.3-2.2,1.8C262.7,52.3,261.7,52.5,260.6,52.5z M260.2,41.6
					c-0.7,0-1.3,0.2-1.7,0.7c-0.4,0.5-0.7,1.2-0.8,2h4.9v-0.3c0-0.8-0.2-1.4-0.6-1.8C261.6,41.8,261,41.6,260.2,41.6z"/>
				<path class="st0" d="M267.5,45.5c0-2.1,0.5-3.7,1.4-4.9s2.2-1.8,3.8-1.8c1.3,0,2.4,0.5,3.2,1.4v-6.7h3.5v18.8h-3.2l-0.2-1.4
					c-0.9,1.1-2,1.7-3.4,1.7c-1.6,0-2.8-0.6-3.7-1.8C268,49.4,267.5,47.7,267.5,45.5z M271.1,45.8c0,1.2,0.2,2.2,0.6,2.9
					c0.4,0.7,1.1,1,1.9,1c1.1,0,1.9-0.5,2.3-1.4V43c-0.4-0.9-1.2-1.4-2.3-1.4C271.9,41.7,271.1,43,271.1,45.8z"/>
				<path class="st0" d="M281.7,45.5c0-2,0.5-3.7,1.4-4.9c1-1.2,2.3-1.9,3.9-1.9c1.5,0,2.6,0.5,3.4,1.5l0.1-1.2h3.2v12.8
					c0,1.2-0.3,2.2-0.8,3c-0.5,0.9-1.3,1.5-2.2,2c-1,0.4-2.1,0.7-3.4,0.7c-1,0-1.9-0.2-2.8-0.6s-1.6-0.9-2.1-1.5l1.6-2.2
					c0.9,1,1.9,1.5,3.2,1.5c0.9,0,1.7-0.3,2.2-0.8c0.5-0.5,0.8-1.2,0.8-2.1v-0.7c-0.8,0.9-1.9,1.4-3.2,1.4c-1.6,0-2.9-0.6-3.9-1.9
					c-1-1.2-1.5-2.9-1.5-4.9V45.5z M285.2,45.8c0,1.2,0.2,2.1,0.7,2.8c0.5,0.7,1.1,1,2,1c1.1,0,1.8-0.4,2.3-1.2v-5.6
					c-0.5-0.8-1.2-1.2-2.3-1.2c-0.8,0-1.5,0.3-2,1C285.5,43.4,285.2,44.4,285.2,45.8z"/>
				<path class="st0" d="M302.6,52.5c-1.9,0-3.5-0.6-4.7-1.8c-1.2-1.2-1.8-2.8-1.8-4.8v-0.3c0-1.3,0.3-2.5,0.8-3.6
					c0.5-1,1.2-1.9,2.2-2.4s2-0.9,3.2-0.9c1.8,0,3.2,0.6,4.3,1.7s1.6,2.8,1.6,4.9v1.4h-8.4c0.1,0.9,0.5,1.6,1,2.1
					c0.6,0.5,1.3,0.8,2.2,0.8c1.4,0,2.4-0.5,3.2-1.5l1.7,1.9c-0.5,0.8-1.2,1.3-2.2,1.8C304.7,52.3,303.7,52.5,302.6,52.5z
					 M302.2,41.6c-0.7,0-1.3,0.2-1.7,0.7c-0.4,0.5-0.7,1.2-0.8,2h4.9v-0.3c0-0.8-0.2-1.4-0.6-1.8C303.5,41.8,302.9,41.6,302.2,41.6z
					"/>
				<path class="st0" d="M330.5,46.3c-0.1,1.9-0.8,3.4-2.1,4.5c-1.3,1.1-3,1.7-5,1.7c-2.3,0-4.1-0.8-5.4-2.3c-1.3-1.5-2-3.6-2-6.3
					v-1.1c0-1.7,0.3-3.2,0.9-4.5c0.6-1.3,1.5-2.3,2.6-3c1.1-0.7,2.4-1,3.9-1c2.1,0,3.7,0.5,5,1.7c1.3,1.1,2,2.6,2.2,4.6h-3.7
					c-0.1-1.1-0.4-2-1-2.5c-0.6-0.5-1.4-0.8-2.5-0.8c-1.2,0-2.1,0.4-2.7,1.3c-0.6,0.9-0.9,2.2-0.9,4.1V44c0,1.9,0.3,3.3,0.9,4.2
					c0.6,0.9,1.5,1.3,2.8,1.3c1.1,0,2-0.3,2.5-0.8c0.6-0.5,0.9-1.3,1-2.4H330.5z"/>
				<path class="st0" d="M338.7,52.5c-1.9,0-3.5-0.6-4.7-1.8c-1.2-1.2-1.8-2.8-1.8-4.8v-0.3c0-1.3,0.3-2.5,0.8-3.6
					c0.5-1,1.2-1.9,2.2-2.4s2-0.9,3.2-0.9c1.8,0,3.2,0.6,4.3,1.7s1.6,2.8,1.6,4.9v1.4h-8.4c0.1,0.9,0.5,1.6,1,2.1
					c0.6,0.5,1.3,0.8,2.2,0.8c1.4,0,2.4-0.5,3.2-1.5l1.7,1.9c-0.5,0.8-1.2,1.3-2.2,1.8C340.8,52.3,339.8,52.5,338.7,52.5z
					 M338.3,41.6c-0.7,0-1.3,0.2-1.7,0.7c-0.4,0.5-0.7,1.2-0.8,2h4.9v-0.3c0-0.8-0.2-1.4-0.6-1.8C339.7,41.8,339.1,41.6,338.3,41.6z
					"/>
				<path class="st0" d="M349.4,39l0.1,1.5c0.9-1.2,2.2-1.8,3.8-1.8c1.4,0,2.4,0.4,3.1,1.2c0.7,0.8,1,2.1,1.1,3.7v8.5H354v-8.5
					c0-0.8-0.2-1.3-0.5-1.6s-0.9-0.5-1.6-0.5c-1,0-1.7,0.4-2.2,1.3v9.3h-3.5V39H349.4z"/>
				<path class="st0" d="M364.4,35.8V39h2.3v2.6h-2.3v6.6c0,0.5,0.1,0.8,0.3,1.1c0.2,0.2,0.5,0.3,1.1,0.3c0.4,0,0.7,0,1-0.1v2.7
					c-0.7,0.2-1.4,0.3-2.1,0.3c-2.5,0-3.7-1.3-3.8-3.8v-7.1H359V39h1.9v-3.3H364.4z"/>
				<path class="st0" d="M374.8,52.5c-1.9,0-3.5-0.6-4.7-1.8c-1.2-1.2-1.8-2.8-1.8-4.8v-0.3c0-1.3,0.3-2.5,0.8-3.6
					c0.5-1,1.2-1.9,2.2-2.4s2-0.9,3.2-0.9c1.8,0,3.2,0.6,4.3,1.7s1.6,2.8,1.6,4.9v1.4h-8.4c0.1,0.9,0.5,1.6,1,2.1
					c0.6,0.5,1.3,0.8,2.2,0.8c1.4,0,2.4-0.5,3.2-1.5l1.7,1.9c-0.5,0.8-1.2,1.3-2.2,1.8C376.9,52.3,375.9,52.5,374.8,52.5z
					 M374.3,41.6c-0.7,0-1.3,0.2-1.7,0.7c-0.4,0.5-0.7,1.2-0.8,2h4.9v-0.3c0-0.8-0.2-1.4-0.6-1.8C375.7,41.8,375.1,41.6,374.3,41.6z
					"/>
				<path class="st0" d="M389.6,42.3c-0.5-0.1-0.9-0.1-1.3-0.1c-1.3,0-2.2,0.5-2.6,1.4v8.7h-3.5V39h3.3l0.1,1.6
					c0.7-1.2,1.7-1.8,2.9-1.8c0.4,0,0.8,0.1,1.1,0.2L389.6,42.3z"/>
			</g>
			<line class="st28" x1="72.3" y1="1.9" x2="72.3" y2="55.3"/>
			<path class="st29" d="M106.3,16.3c-1.2-1.7-2.8-2.9-4.6-3.7c-1.8-0.8-3.7-1.2-5.7-1.2c-2.3,0-4.4,0.5-6.3,1.4
				c-1.9,0.9-3.6,2.2-4.9,3.7c-1.4,1.6-2.5,3.4-3.2,5.4c-0.8,2.1-1.2,4.2-1.2,6.4c0,2.4,0.4,4.6,1.2,6.7c0.8,2.1,1.8,3.9,3.2,5.4
				c1.4,1.5,3,2.7,4.9,3.6c1.9,0.9,4,1.3,6.3,1.3c2.5,0,4.7-0.5,6.7-1.5c2-1,3.7-2.4,5.1-4.2l3.6,3.1c-1.8,2.5-4.1,4.3-6.7,5.4
				c-2.6,1.2-5.5,1.7-8.8,1.7c-2.9,0-5.7-0.5-8.2-1.6c-2.5-1.1-4.8-2.6-6.6-4.5c-1.9-1.9-3.3-4.2-4.4-6.8c-1.1-2.6-1.6-5.5-1.6-8.6
				c0-3,0.5-5.8,1.5-8.4c1-2.6,2.5-4.9,4.3-6.8c1.8-1.9,4-3.4,6.6-4.6c2.5-1.1,5.3-1.7,8.4-1.7c2.8,0,5.4,0.5,8,1.5
				c2.6,1,4.7,2.6,6.4,4.9L106.3,16.3z"/>
			<path class="st29" d="M131.6,7.9h4.6l17.4,40.9h-5.7l-4.2-10.1h-20.5l-4.2,10.1h-5.5L131.6,7.9z M133.8,14.1h-0.1l-8.5,20.1h16.7
				L133.8,14.1z"/>
			<path class="st29" d="M178.4,15.1c-0.8-1.3-1.9-2.3-3.2-2.9c-1.3-0.6-2.8-0.9-4.2-0.9c-1.1,0-2.1,0.1-3.2,0.4
				c-1,0.3-2,0.7-2.8,1.2c-0.8,0.5-1.5,1.3-2,2.1c-0.5,0.9-0.8,1.9-0.8,3.1c0,0.9,0.1,1.7,0.4,2.5c0.3,0.7,0.8,1.4,1.4,1.9
				c0.7,0.6,1.5,1.1,2.7,1.6c1.1,0.5,2.5,1,4.1,1.5c1.6,0.5,3.1,1,4.6,1.6c1.5,0.6,2.8,1.3,3.9,2.2c1.1,0.9,2,2,2.7,3.3
				c0.7,1.3,1,3,1,5c0,2-0.4,3.8-1.2,5.3c-0.8,1.5-1.9,2.7-3.2,3.7c-1.3,1-2.9,1.7-4.6,2.2c-1.7,0.5-3.5,0.7-5.4,0.7
				c-1.2,0-2.4-0.1-3.6-0.3c-1.2-0.2-2.3-0.5-3.4-1c-1.1-0.4-2.1-1-3.1-1.7c-1-0.7-1.8-1.6-2.5-2.6l4.2-3.4c0.9,1.5,2.1,2.6,3.7,3.4
				c1.6,0.8,3.3,1.2,5,1.2c1,0,2.1-0.2,3.2-0.5c1.1-0.3,2-0.8,2.9-1.4c0.8-0.6,1.5-1.3,2.1-2.2c0.5-0.9,0.8-1.9,0.8-3.1
				c0-1.3-0.2-2.3-0.6-3.1c-0.4-0.8-1.1-1.5-2-2.1c-0.9-0.6-2-1.1-3.4-1.6c-1.3-0.5-2.9-1-4.7-1.6c-1.5-0.5-2.8-1-4-1.6
				c-1.2-0.6-2.3-1.3-3.2-2.2c-0.9-0.9-1.6-1.9-2.1-3.1c-0.5-1.2-0.8-2.7-0.8-4.4c0-2,0.4-3.7,1.2-5.1c0.8-1.5,1.8-2.7,3.1-3.7
				c1.3-1,2.8-1.7,4.5-2.2c1.7-0.5,3.4-0.8,5.2-0.8c2.3,0,4.4,0.4,6.3,1.1c1.9,0.7,3.6,2,5.1,3.7L178.4,15.1z"/>
			<path class="st29" d="M191.2,7.9h25.7v4.5H196v12.8h19.5v4.5H196v14.6h21.9v4.5h-26.8V7.9z"/>
			<path class="st29" d="M227.8,7.9h4.9v36.4h18.7v4.5h-23.6V7.9z"/>
			<path class="st3" d="M28.4,28.4C28.4,28.4,28.4,28.4,28.4,28.4c0-7.9,6.4-14.2,14.2-14.2c0,0,0,0,0.1,0c0,0,0,0,0,0
				C42.7,6.4,36.3,0,28.5,0c-7.9,0-14.2,6.4-14.2,14.2c0,0,0,0,0,0C22.1,14.2,28.4,20.6,28.4,28.4z"/>
			<path class="st10" d="M28.4,28.4C28.4,28.4,28.4,28.4,28.4,28.4c0,7.8-6.3,14.2-14.2,14.2c0,0,0,0,0,0c0,7.9,6.4,14.2,14.2,14.2
				c7.9,0,14.2-6.4,14.2-14.2c0,0,0,0,0,0c0,0,0,0-0.1,0C34.8,42.7,28.4,36.3,28.4,28.4z"/>
			<path class="st30" d="M56.9,28.4c0-7.8-6.3-14.2-14.2-14.2c0,7.9-6.4,14.2-14.2,14.2c7.9,0,14.2,6.4,14.2,14.2
				C50.5,42.6,56.9,36.3,56.9,28.4z"/>
			<path class="st3" d="M28.4,28.4C28.4,28.4,28.4,28.4,28.4,28.4C28.5,28.4,28.5,28.4,28.4,28.4C28.5,28.4,28.5,28.4,28.4,28.4
				C28.4,28.4,28.4,28.4,28.4,28.4z"/>
			<path class="st7" d="M28.4,28.4C28.4,28.4,28.4,28.4,28.4,28.4C28.4,28.4,28.4,28.4,28.4,28.4c-7.8,0-14.2-6.4-14.2-14.2
				c0,0,0,0-0.1,0C6.4,14.2,0,20.6,0,28.4c0,7.9,6.4,14.2,14.2,14.2c0,0,0,0,0.1,0C14.3,34.8,20.6,28.5,28.4,28.4z"/>
		</g>
	</g>
</g>
<g id="member-experience">
</g>
<g id="dropdowns">
</g>
</svg>
